<svg xmlns="http://www.w3.org/2000/svg" width="27.679" height="27.679" viewBox="0 0 27.679 27.679"><path d="M13.84,0a13.84,13.84,0,1,0,13.84,13.84A13.855,13.855,0,0,0,13.84,0Zm0,25.163A11.323,11.323,0,1,1,25.163,13.84,11.336,11.336,0,0,1,13.84,25.163Z" fill="#0e8c02"/><path d="M90.048,102.639l-7.117,7.117-3.262-3.262a1.258,1.258,0,1,0-1.779,1.779l4.152,4.152a1.258,1.258,0,0,0,.89.369h0a1.258,1.258,0,0,0,.89-.368l8.007-8.007a1.258,1.258,0,0,0-1.779-1.779Z" transform="translate(-71.019 -93.693)" fill="#0e8c02"/></svg>