<svg xmlns="http://www.w3.org/2000/svg" width="583" height="444.44" viewBox="0 0 583 444.44">
  <defs>
    <style type="text/css">
      @import url('https://fonts.googleapis.com/css2?family=Montserrat:wght@700;800');
    </style>
  </defs>
  <g id="Group_24" data-name="Group 24" transform="translate(-232 -1021)">
    <g id="Rectangle_8" data-name="Rectangle 8" transform="translate(232 1167)" fill="#0f0e24" stroke="#707070" stroke-width="1">
      <rect width="285" height="140" rx="14" stroke="none"/>
      <rect x="0.5" y="0.5" width="284" height="139" rx="13.5" fill="none"/>
    </g>
    <g id="wolf" transform="translate(268.999 1158.926)" opacity="0.136">
      <g id="Group_23" data-name="Group 23">
        <g id="Group_22" data-name="Group 22">
          <g id="Group_3" data-name="Group 3">
            <path id="Path_3" data-name="Path 3" d="M120.512,109.557s16.013,11.026,15.423,38.957c0,0-16.663-30.418-50.752-24.37C85.183,124.145,92.5,104.22,120.512,109.557Z" fill="#9e9e9e"/>
            <path id="Path_4" data-name="Path 4" d="M29.077,109.557s-16.014,11.026-15.423,38.957c0,0,16.663-30.418,50.752-24.37C64.406,124.145,57.084,104.22,29.077,109.557Z" fill="#9e9e9e"/>
          </g>
          <g id="Group_4" data-name="Group 4">
            <path id="Path_5" data-name="Path 5" d="M127.374,98.549s18.417,11.026,17.738,38.958c0,0-19.165-30.419-58.37-24.37C86.742,113.137,95.163,93.212,127.374,98.549Z" fill="#9e9e9e"/>
            <path id="Path_6" data-name="Path 6" d="M22.215,98.549S3.8,109.575,4.477,137.507c0,0,19.164-30.419,58.37-24.37C62.847,113.137,54.426,93.212,22.215,98.549Z" fill="#9e9e9e"/>
          </g>
          <path id="Path_7" data-name="Path 7" d="M133.637,86.394a24.724,24.724,0,0,1,14.291,9.761c-1.472-26.313-22.907-37.772-22.907-37.772L112.2,14.881C104.217,20.61,83.622,29.1,74.795,29.1S45.374,20.611,37.388,14.881l-12.819,43.5S3.133,69.842,1.662,96.155a24.72,24.72,0,0,1,14.29-9.761S-2.961,97.216.4,116.315c9.036-11.459,34.675-18.674,46.864-12.732s10.928,16.977,12.4,25.677c.836,4.945,1.843,10.333,5.167,13.029,2.524,2.048,7.061,2.037,9.964,2.037s7.44.011,9.965-2.037c3.324-2.7,4.33-8.084,5.166-13.029,1.472-8.7.211-19.735,12.4-25.677s37.827,1.274,46.864,12.732C152.551,97.217,133.637,86.394,133.637,86.394Z" fill="#9e9e9e"/>
          <g id="Group_15" data-name="Group 15">
            <g id="Group_9" data-name="Group 9">
              <g id="Group_6" data-name="Group 6">
                <g id="Group_5" data-name="Group 5">
                  <path id="Path_8" data-name="Path 8" d="M31.852,1.163c1.793-.913,9.218,5.3,14.459,13.263,4.4,6.7,7.4,19.388,6.926,24.99-.734,8.655-16.366,21.412-27,23.373C19.725,45.141,24.675,4.815,31.852,1.163Z" fill="#b8b8b8"/>
                </g>
              </g>
              <g id="Group_8" data-name="Group 8">
                <g id="Group_7" data-name="Group 7">
                  <path id="Path_9" data-name="Path 9" d="M33.6,9.559C34.9,8.9,40.3,13.41,44.11,19.2c3.2,4.869,5.381,14.1,5.035,18.171-.533,6.293-11.9,15.569-19.633,17C24.778,41.536,28.378,12.215,33.6,9.559Z" fill="#a6a6a6"/>
                </g>
              </g>
            </g>
            <g id="Group_14" data-name="Group 14">
              <g id="Group_11" data-name="Group 11">
                <g id="Group_10" data-name="Group 10">
                  <path id="Path_10" data-name="Path 10" d="M117.737,1.163c-1.794-.913-9.218,5.3-14.459,13.263-4.4,6.7-7.4,19.388-6.926,24.99.733,8.655,16.366,21.412,27,23.373C129.864,45.141,124.914,4.815,117.737,1.163Z" fill="#b8b8b8"/>
                </g>
              </g>
              <g id="Group_13" data-name="Group 13">
                <g id="Group_12" data-name="Group 12">
                  <path id="Path_11" data-name="Path 11" d="M115.993,9.559c-1.305-.664-6.7,3.851-10.514,9.643-3.2,4.869-5.382,14.1-5.036,18.171.534,6.293,11.9,15.569,19.633,17C124.811,41.536,121.211,12.215,115.993,9.559Z" fill="#a6a6a6"/>
                </g>
              </g>
            </g>
          </g>
          <path id="Path_12" data-name="Path 12" d="M101.043,89.155v9.9h-52.5v-9.9c-8.2-4.568-22.081-1.143-22.081,4.949s18.36,15.933,28.688,39.977c5.143,11.974,16.593,12.575,19.509,12.6h.269c2.915-.026,14.364-.627,19.508-12.6,10.328-24.044,28.688-33.885,28.688-39.977S109.242,84.587,101.043,89.155Z" fill="#b8b8b8"/>
          <path id="Path_13" data-name="Path 13" d="M74.794,133.977,64.473,142.11s1.673,5.3,10.321,5.3,10.322-5.3,10.322-5.3Z" fill="#9e9e9e"/>
          <path id="Path_14" data-name="Path 14" d="M47.265,97.449c12.188,6.836,10.928,19.532,12.4,29.542.836,5.69,1.843,11.888,5.167,14.991,2.524,2.356,7.061,2.344,9.964,2.344s7.44.012,9.965-2.344c3.324-3.1,4.33-9.3,5.166-14.991,1.472-10.01.211-22.706,12.4-29.542S35.075,90.614,47.265,97.449Z" fill="#9e9e9e"/>
          <g id="Group_16" data-name="Group 16">
            <path id="Path_15" data-name="Path 15" d="M111.186,104.477s1.8-20.464-4.954-28.423-16.889-3.638-17.79,2.5S88.97,97.279,93.4,99.7,111.186,104.477,111.186,104.477Z" fill="#c2c2c2"/>
            <path id="Path_16" data-name="Path 16" d="M38.4,104.477s-1.8-20.464,4.954-28.423,16.889-3.638,17.789,2.5S60.618,97.279,56.192,99.7,38.4,104.477,38.4,104.477Z" fill="#c2c2c2"/>
          </g>
          <g id="Group_21" data-name="Group 21">
            <g id="Group_18" data-name="Group 18">
              <path id="Path_17" data-name="Path 17" d="M86.742,89.85s11.64-2.014,17.469-10.345c0,0-5.561-6.11-12.49-.959C87.069,82,86.742,89.85,86.742,89.85Z" fill="#a6a6a6"/>
              <g id="Group_17" data-name="Group 17">
                <ellipse id="Ellipse_1" data-name="Ellipse 1" cx="3.423" cy="3.456" rx="3.423" ry="3.456" transform="translate(91.635 78.17)" fill="#fff"/>
                <ellipse id="Ellipse_2" data-name="Ellipse 2" cx="1.288" cy="1.3" rx="1.288" ry="1.3" transform="translate(92.904 79.802)" fill="#fff"/>
              </g>
            </g>
            <g id="Group_20" data-name="Group 20">
              <path id="Path_18" data-name="Path 18" d="M62.847,89.85S51.207,87.836,45.378,79.5c0,0,5.56-6.11,12.489-.959C62.52,82,62.847,89.85,62.847,89.85Z" fill="#a6a6a6"/>
              <g id="Group_19" data-name="Group 19">
                <ellipse id="Ellipse_3" data-name="Ellipse 3" cx="3.423" cy="3.456" rx="3.423" ry="3.456" transform="translate(51.108 78.17)" fill="#fff"/>
                <ellipse id="Ellipse_4" data-name="Ellipse 4" cx="1.288" cy="1.3" rx="1.288" ry="1.3" transform="translate(52.377 79.802)" fill="#fff"/>
              </g>
            </g>
          </g>
          <path id="Path_19" data-name="Path 19" d="M74.794,131.87c-4.451,0-7.928.957-9.622,3.143,0,0,5.148,7.764,9.622,7.764s9.623-7.764,9.623-7.764C82.723,132.827,79.245,131.87,74.794,131.87Z" fill="#a6a6a6"/>
          <path id="Path_20" data-name="Path 20" d="M74.794,133.507c4.019,0,7.358.479,9.6,1.536l.021-.031c-1.694-2.186-5.172-3.143-9.623-3.143s-7.928.957-9.622,3.143l.021.031C67.436,133.986,70.776,133.507,74.794,133.507Z" fill="#3c454a" opacity="0.8"/>
        </g>
        <path id="Path_21" data-name="Path 21" d="M74.794,29.1c-5.646,0-16.1-3.473-25-7.475a36.764,36.764,0,0,0-3.486-7.2C41.069,6.459,33.645.251,31.852,1.163c-6.547,3.331-11.236,37.172-7.067,56.486l-.217.734S3.133,69.842,1.662,96.155a24.72,24.72,0,0,1,14.29-9.761S-2.961,97.216.4,116.315c2.995-3.8,7.819-7.125,13.368-9.666-4.742,6.2-9.648,16.194-9.292,30.858a57.5,57.5,0,0,1,14.058-14.142c-2.851,6.085-5.108,14.348-4.88,25.149,0,0,11.885-21.692,36.111-24.8a79.807,79.807,0,0,1,5.386,10.361A19.741,19.741,0,0,0,67.3,145.451a13.037,13.037,0,0,0,7.494,1.962V29.1Z" fill="#fff" opacity="0.12"/>
      </g>
    </g>
  </g>
  <text id="Clients_Helped" data-name="Clients Helped" transform="translate(24 185)" fill="#fff" font-size="18" font-family="Montserrat-Bold, Montserrat" font-weight="700"><tspan x="0" y="0">CLIENTS HELPED</tspan></text>
  <text id="_25" data-name="25" transform="translate(24 253)" fill="#b90edf" font-size="65" font-family="Montserrat-ExtraBold, Montserrat" font-weight="800"><tspan x="0" y="0">25</tspan></text>
  <g id="Group_25" data-name="Group 25" transform="translate(66 -1021)">
    <g id="Rectangle_8-2" data-name="Rectangle 8" transform="translate(232 1167)" fill="#0f0e24" stroke="#707070" stroke-width="1">
      <rect width="285" height="140" rx="14" stroke="none"/>
      <rect x="0.5" y="0.5" width="284" height="139" rx="13.5" fill="none"/>
    </g>
    <g id="wolf-2" data-name="wolf" transform="translate(268.999 1158.926)" opacity="0.136">
      <g id="Group_23-2" data-name="Group 23">
        <g id="Group_22-2" data-name="Group 22">
          <g id="Group_3-2" data-name="Group 3">
            <path id="Path_3-2" data-name="Path 3" d="M120.512,109.557s16.013,11.026,15.423,38.957c0,0-16.663-30.418-50.752-24.37C85.183,124.145,92.5,104.22,120.512,109.557Z" fill="#9e9e9e"/>
            <path id="Path_4-2" data-name="Path 4" d="M29.077,109.557s-16.014,11.026-15.423,38.957c0,0,16.663-30.418,50.752-24.37C64.406,124.145,57.084,104.22,29.077,109.557Z" fill="#9e9e9e"/>
          </g>
          <g id="Group_4-2" data-name="Group 4">
            <path id="Path_5-2" data-name="Path 5" d="M127.374,98.549s18.417,11.026,17.738,38.958c0,0-19.165-30.419-58.37-24.37C86.742,113.137,95.163,93.212,127.374,98.549Z" fill="#9e9e9e"/>
            <path id="Path_6-2" data-name="Path 6" d="M22.215,98.549S3.8,109.575,4.477,137.507c0,0,19.164-30.419,58.37-24.37C62.847,113.137,54.426,93.212,22.215,98.549Z" fill="#9e9e9e"/>
          </g>
          <path id="Path_7-2" data-name="Path 7" d="M133.637,86.394a24.724,24.724,0,0,1,14.291,9.761c-1.472-26.313-22.907-37.772-22.907-37.772L112.2,14.881C104.217,20.61,83.622,29.1,74.795,29.1S45.374,20.611,37.388,14.881l-12.819,43.5S3.133,69.842,1.662,96.155a24.72,24.72,0,0,1,14.29-9.761S-2.961,97.216.4,116.315c9.036-11.459,34.675-18.674,46.864-12.732s10.928,16.977,12.4,25.677c.836,4.945,1.843,10.333,5.167,13.029,2.524,2.048,7.061,2.037,9.964,2.037s7.44.011,9.965-2.037c3.324-2.7,4.33-8.084,5.166-13.029,1.472-8.7.211-19.735,12.4-25.677s37.827,1.274,46.864,12.732C152.551,97.217,133.637,86.394,133.637,86.394Z" fill="#9e9e9e"/>
          <g id="Group_15-2" data-name="Group 15">
            <g id="Group_9-2" data-name="Group 9">
              <g id="Group_6-2" data-name="Group 6">
                <g id="Group_5-2" data-name="Group 5">
                  <path id="Path_8-2" data-name="Path 8" d="M31.852,1.163c1.793-.913,9.218,5.3,14.459,13.263,4.4,6.7,7.4,19.388,6.926,24.99-.734,8.655-16.366,21.412-27,23.373C19.725,45.141,24.675,4.815,31.852,1.163Z" fill="#b8b8b8"/>
                </g>
              </g>
              <g id="Group_8-2" data-name="Group 8">
                <g id="Group_7-2" data-name="Group 7">
                  <path id="Path_9-2" data-name="Path 9" d="M33.6,9.559C34.9,8.9,40.3,13.41,44.11,19.2c3.2,4.869,5.381,14.1,5.035,18.171-.533,6.293-11.9,15.569-19.633,17C24.778,41.536,28.378,12.215,33.6,9.559Z" fill="#a6a6a6"/>
                </g>
              </g>
            </g>
            <g id="Group_14-2" data-name="Group 14">
              <g id="Group_11-2" data-name="Group 11">
                <g id="Group_10-2" data-name="Group 10">
                  <path id="Path_10-2" data-name="Path 10" d="M117.737,1.163c-1.794-.913-9.218,5.3-14.459,13.263-4.4,6.7-7.4,19.388-6.926,24.99.733,8.655,16.366,21.412,27,23.373C129.864,45.141,124.914,4.815,117.737,1.163Z" fill="#b8b8b8"/>
                </g>
              </g>
              <g id="Group_13-2" data-name="Group 13">
                <g id="Group_12-2" data-name="Group 12">
                  <path id="Path_11-2" data-name="Path 11" d="M115.993,9.559c-1.305-.664-6.7,3.851-10.514,9.643-3.2,4.869-5.382,14.1-5.036,18.171.534,6.293,11.9,15.569,19.633,17C124.811,41.536,121.211,12.215,115.993,9.559Z" fill="#a6a6a6"/>
                </g>
              </g>
            </g>
          </g>
          <path id="Path_12-2" data-name="Path 12" d="M101.043,89.155v9.9h-52.5v-9.9c-8.2-4.568-22.081-1.143-22.081,4.949s18.36,15.933,28.688,39.977c5.143,11.974,16.593,12.575,19.509,12.6h.269c2.915-.026,14.364-.627,19.508-12.6,10.328-24.044,28.688-33.885,28.688-39.977S109.242,84.587,101.043,89.155Z" fill="#b8b8b8"/>
          <path id="Path_13-2" data-name="Path 13" d="M74.794,133.977,64.473,142.11s1.673,5.3,10.321,5.3,10.322-5.3,10.322-5.3Z" fill="#9e9e9e"/>
          <path id="Path_14-2" data-name="Path 14" d="M47.265,97.449c12.188,6.836,10.928,19.532,12.4,29.542.836,5.69,1.843,11.888,5.167,14.991,2.524,2.356,7.061,2.344,9.964,2.344s7.44.012,9.965-2.344c3.324-3.1,4.33-9.3,5.166-14.991,1.472-10.01.211-22.706,12.4-29.542S35.075,90.614,47.265,97.449Z" fill="#9e9e9e"/>
          <g id="Group_16-2" data-name="Group 16">
            <path id="Path_15-2" data-name="Path 15" d="M111.186,104.477s1.8-20.464-4.954-28.423-16.889-3.638-17.79,2.5S88.97,97.279,93.4,99.7,111.186,104.477,111.186,104.477Z" fill="#c2c2c2"/>
            <path id="Path_16-2" data-name="Path 16" d="M38.4,104.477s-1.8-20.464,4.954-28.423,16.889-3.638,17.789,2.5S60.618,97.279,56.192,99.7,38.4,104.477,38.4,104.477Z" fill="#c2c2c2"/>
          </g>
          <g id="Group_21-2" data-name="Group 21">
            <g id="Group_18-2" data-name="Group 18">
              <path id="Path_17-2" data-name="Path 17" d="M86.742,89.85s11.64-2.014,17.469-10.345c0,0-5.561-6.11-12.49-.959C87.069,82,86.742,89.85,86.742,89.85Z" fill="#a6a6a6"/>
              <g id="Group_17-2" data-name="Group 17">
                <ellipse id="Ellipse_1-2" data-name="Ellipse 1" cx="3.423" cy="3.456" rx="3.423" ry="3.456" transform="translate(91.635 78.17)" fill="#fff"/>
                <ellipse id="Ellipse_2-2" data-name="Ellipse 2" cx="1.288" cy="1.3" rx="1.288" ry="1.3" transform="translate(92.904 79.802)" fill="#fff"/>
              </g>
            </g>
            <g id="Group_20-2" data-name="Group 20">
              <path id="Path_18-2" data-name="Path 18" d="M62.847,89.85S51.207,87.836,45.378,79.5c0,0,5.56-6.11,12.489-.959C62.52,82,62.847,89.85,62.847,89.85Z" fill="#a6a6a6"/>
              <g id="Group_19-2" data-name="Group 19">
                <ellipse id="Ellipse_3-2" data-name="Ellipse 3" cx="3.423" cy="3.456" rx="3.423" ry="3.456" transform="translate(51.108 78.17)" fill="#fff"/>
                <ellipse id="Ellipse_4-2" data-name="Ellipse 4" cx="1.288" cy="1.3" rx="1.288" ry="1.3" transform="translate(52.377 79.802)" fill="#fff"/>
              </g>
            </g>
          </g>
          <path id="Path_19-2" data-name="Path 19" d="M74.794,131.87c-4.451,0-7.928.957-9.622,3.143,0,0,5.148,7.764,9.622,7.764s9.623-7.764,9.623-7.764C82.723,132.827,79.245,131.87,74.794,131.87Z" fill="#a6a6a6"/>
          <path id="Path_20-2" data-name="Path 20" d="M74.794,133.507c4.019,0,7.358.479,9.6,1.536l.021-.031c-1.694-2.186-5.172-3.143-9.623-3.143s-7.928.957-9.622,3.143l.021.031C67.436,133.986,70.776,133.507,74.794,133.507Z" fill="#3c454a" opacity="0.8"/>
        </g>
        <path id="Path_21-2" data-name="Path 21" d="M74.794,29.1c-5.646,0-16.1-3.473-25-7.475a36.764,36.764,0,0,0-3.486-7.2C41.069,6.459,33.645.251,31.852,1.163c-6.547,3.331-11.236,37.172-7.067,56.486l-.217.734S3.133,69.842,1.662,96.155a24.72,24.72,0,0,1,14.29-9.761S-2.961,97.216.4,116.315c2.995-3.8,7.819-7.125,13.368-9.666-4.742,6.2-9.648,16.194-9.292,30.858a57.5,57.5,0,0,1,14.058-14.142c-2.851,6.085-5.108,14.348-4.88,25.149,0,0,11.885-21.692,36.111-24.8a79.807,79.807,0,0,1,5.386,10.361A19.741,19.741,0,0,0,67.3,145.451a13.037,13.037,0,0,0,7.494,1.962V29.1Z" fill="#fff" opacity="0.12"/>
      </g>
    </g>
  </g>
  <text id="Spent" transform="translate(322 185)" fill="#fff" font-size="18" font-family="Montserrat-Bold, Montserrat" font-weight="700"><tspan x="0" y="0">SPENT</tspan></text>
  <text id="_750k" data-name="$750k" transform="translate(322 253)" fill="#b90edf" font-size="65" font-family="Montserrat-ExtraBold, Montserrat" font-weight="800"><tspan x="0" y="0">$750k</tspan></text>
  <g id="Group_26" data-name="Group 26" transform="translate(-232 -863)">
    <g id="Rectangle_8-3" data-name="Rectangle 8" transform="translate(232 1167)" fill="#0f0e24" stroke="#707070" stroke-width="1">
      <rect width="285" height="140" rx="14" stroke="none"/>
      <rect x="0.5" y="0.5" width="284" height="139" rx="13.5" fill="none"/>
    </g>
    <g id="wolf-3" data-name="wolf" transform="translate(268.999 1158.926)" opacity="0.136">
      <g id="Group_23-3" data-name="Group 23">
        <g id="Group_22-3" data-name="Group 22">
          <g id="Group_3-3" data-name="Group 3">
            <path id="Path_3-3" data-name="Path 3" d="M120.512,109.557s16.013,11.026,15.423,38.957c0,0-16.663-30.418-50.752-24.37C85.183,124.145,92.5,104.22,120.512,109.557Z" fill="#9e9e9e"/>
            <path id="Path_4-3" data-name="Path 4" d="M29.077,109.557s-16.014,11.026-15.423,38.957c0,0,16.663-30.418,50.752-24.37C64.406,124.145,57.084,104.22,29.077,109.557Z" fill="#9e9e9e"/>
          </g>
          <g id="Group_4-3" data-name="Group 4">
            <path id="Path_5-3" data-name="Path 5" d="M127.374,98.549s18.417,11.026,17.738,38.958c0,0-19.165-30.419-58.37-24.37C86.742,113.137,95.163,93.212,127.374,98.549Z" fill="#9e9e9e"/>
            <path id="Path_6-3" data-name="Path 6" d="M22.215,98.549S3.8,109.575,4.477,137.507c0,0,19.164-30.419,58.37-24.37C62.847,113.137,54.426,93.212,22.215,98.549Z" fill="#9e9e9e"/>
          </g>
          <path id="Path_7-3" data-name="Path 7" d="M133.637,86.394a24.724,24.724,0,0,1,14.291,9.761c-1.472-26.313-22.907-37.772-22.907-37.772L112.2,14.881C104.217,20.61,83.622,29.1,74.795,29.1S45.374,20.611,37.388,14.881l-12.819,43.5S3.133,69.842,1.662,96.155a24.72,24.72,0,0,1,14.29-9.761S-2.961,97.216.4,116.315c9.036-11.459,34.675-18.674,46.864-12.732s10.928,16.977,12.4,25.677c.836,4.945,1.843,10.333,5.167,13.029,2.524,2.048,7.061,2.037,9.964,2.037s7.44.011,9.965-2.037c3.324-2.7,4.33-8.084,5.166-13.029,1.472-8.7.211-19.735,12.4-25.677s37.827,1.274,46.864,12.732C152.551,97.217,133.637,86.394,133.637,86.394Z" fill="#9e9e9e"/>
          <g id="Group_15-3" data-name="Group 15">
            <g id="Group_9-3" data-name="Group 9">
              <g id="Group_6-3" data-name="Group 6">
                <g id="Group_5-3" data-name="Group 5">
                  <path id="Path_8-3" data-name="Path 8" d="M31.852,1.163c1.793-.913,9.218,5.3,14.459,13.263,4.4,6.7,7.4,19.388,6.926,24.99-.734,8.655-16.366,21.412-27,23.373C19.725,45.141,24.675,4.815,31.852,1.163Z" fill="#b8b8b8"/>
                </g>
              </g>
              <g id="Group_8-3" data-name="Group 8">
                <g id="Group_7-3" data-name="Group 7">
                  <path id="Path_9-3" data-name="Path 9" d="M33.6,9.559C34.9,8.9,40.3,13.41,44.11,19.2c3.2,4.869,5.381,14.1,5.035,18.171-.533,6.293-11.9,15.569-19.633,17C24.778,41.536,28.378,12.215,33.6,9.559Z" fill="#a6a6a6"/>
                </g>
              </g>
            </g>
            <g id="Group_14-3" data-name="Group 14">
              <g id="Group_11-3" data-name="Group 11">
                <g id="Group_10-3" data-name="Group 10">
                  <path id="Path_10-3" data-name="Path 10" d="M117.737,1.163c-1.794-.913-9.218,5.3-14.459,13.263-4.4,6.7-7.4,19.388-6.926,24.99.733,8.655,16.366,21.412,27,23.373C129.864,45.141,124.914,4.815,117.737,1.163Z" fill="#b8b8b8"/>
                </g>
              </g>
              <g id="Group_13-3" data-name="Group 13">
                <g id="Group_12-3" data-name="Group 12">
                  <path id="Path_11-3" data-name="Path 11" d="M115.993,9.559c-1.305-.664-6.7,3.851-10.514,9.643-3.2,4.869-5.382,14.1-5.036,18.171.534,6.293,11.9,15.569,19.633,17C124.811,41.536,121.211,12.215,115.993,9.559Z" fill="#a6a6a6"/>
                </g>
              </g>
            </g>
          </g>
          <path id="Path_12-3" data-name="Path 12" d="M101.043,89.155v9.9h-52.5v-9.9c-8.2-4.568-22.081-1.143-22.081,4.949s18.36,15.933,28.688,39.977c5.143,11.974,16.593,12.575,19.509,12.6h.269c2.915-.026,14.364-.627,19.508-12.6,10.328-24.044,28.688-33.885,28.688-39.977S109.242,84.587,101.043,89.155Z" fill="#b8b8b8"/>
          <path id="Path_13-3" data-name="Path 13" d="M74.794,133.977,64.473,142.11s1.673,5.3,10.321,5.3,10.322-5.3,10.322-5.3Z" fill="#9e9e9e"/>
          <path id="Path_14-3" data-name="Path 14" d="M47.265,97.449c12.188,6.836,10.928,19.532,12.4,29.542.836,5.69,1.843,11.888,5.167,14.991,2.524,2.356,7.061,2.344,9.964,2.344s7.44.012,9.965-2.344c3.324-3.1,4.33-9.3,5.166-14.991,1.472-10.01.211-22.706,12.4-29.542S35.075,90.614,47.265,97.449Z" fill="#9e9e9e"/>
          <g id="Group_16-3" data-name="Group 16">
            <path id="Path_15-3" data-name="Path 15" d="M111.186,104.477s1.8-20.464-4.954-28.423-16.889-3.638-17.79,2.5S88.97,97.279,93.4,99.7,111.186,104.477,111.186,104.477Z" fill="#c2c2c2"/>
            <path id="Path_16-3" data-name="Path 16" d="M38.4,104.477s-1.8-20.464,4.954-28.423,16.889-3.638,17.789,2.5S60.618,97.279,56.192,99.7,38.4,104.477,38.4,104.477Z" fill="#c2c2c2"/>
          </g>
          <g id="Group_21-3" data-name="Group 21">
            <g id="Group_18-3" data-name="Group 18">
              <path id="Path_17-3" data-name="Path 17" d="M86.742,89.85s11.64-2.014,17.469-10.345c0,0-5.561-6.11-12.49-.959C87.069,82,86.742,89.85,86.742,89.85Z" fill="#a6a6a6"/>
              <g id="Group_17-3" data-name="Group 17">
                <ellipse id="Ellipse_1-3" data-name="Ellipse 1" cx="3.423" cy="3.456" rx="3.423" ry="3.456" transform="translate(91.635 78.17)" fill="#fff"/>
                <ellipse id="Ellipse_2-3" data-name="Ellipse 2" cx="1.288" cy="1.3" rx="1.288" ry="1.3" transform="translate(92.904 79.802)" fill="#fff"/>
              </g>
            </g>
            <g id="Group_20-3" data-name="Group 20">
              <path id="Path_18-3" data-name="Path 18" d="M62.847,89.85S51.207,87.836,45.378,79.5c0,0,5.56-6.11,12.489-.959C62.52,82,62.847,89.85,62.847,89.85Z" fill="#a6a6a6"/>
              <g id="Group_19-3" data-name="Group 19">
                <ellipse id="Ellipse_3-3" data-name="Ellipse 3" cx="3.423" cy="3.456" rx="3.423" ry="3.456" transform="translate(51.108 78.17)" fill="#fff"/>
                <ellipse id="Ellipse_4-3" data-name="Ellipse 4" cx="1.288" cy="1.3" rx="1.288" ry="1.3" transform="translate(52.377 79.802)" fill="#fff"/>
              </g>
            </g>
          </g>
          <path id="Path_19-3" data-name="Path 19" d="M74.794,131.87c-4.451,0-7.928.957-9.622,3.143,0,0,5.148,7.764,9.622,7.764s9.623-7.764,9.623-7.764C82.723,132.827,79.245,131.87,74.794,131.87Z" fill="#a6a6a6"/>
          <path id="Path_20-3" data-name="Path 20" d="M74.794,133.507c4.019,0,7.358.479,9.6,1.536l.021-.031c-1.694-2.186-5.172-3.143-9.623-3.143s-7.928.957-9.622,3.143l.021.031C67.436,133.986,70.776,133.507,74.794,133.507Z" fill="#3c454a" opacity="0.8"/>
        </g>
        <path id="Path_21-3" data-name="Path 21" d="M74.794,29.1c-5.646,0-16.1-3.473-25-7.475a36.764,36.764,0,0,0-3.486-7.2C41.069,6.459,33.645.251,31.852,1.163c-6.547,3.331-11.236,37.172-7.067,56.486l-.217.734S3.133,69.842,1.662,96.155a24.72,24.72,0,0,1,14.29-9.761S-2.961,97.216.4,116.315c2.995-3.8,7.819-7.125,13.368-9.666-4.742,6.2-9.648,16.194-9.292,30.858a57.5,57.5,0,0,1,14.058-14.142c-2.851,6.085-5.108,14.348-4.88,25.149,0,0,11.885-21.692,36.111-24.8a79.807,79.807,0,0,1,5.386,10.361A19.741,19.741,0,0,0,67.3,145.451a13.037,13.037,0,0,0,7.494,1.962V29.1Z" fill="#fff" opacity="0.12"/>
      </g>
    </g>
  </g>
  <text id="ROAS" transform="translate(24 343)" fill="#fff" font-size="18" font-family="Montserrat-Bold, Montserrat" font-weight="700"><tspan x="0" y="0">ROAS</tspan></text>
  <text id="_7x" data-name="7x" transform="translate(24 411)" fill="#b90edf" font-size="65" font-family="Montserrat-ExtraBold, Montserrat" font-weight="800"><tspan x="0" y="0">7X</tspan></text>
  <g id="Group_27" data-name="Group 27" transform="translate(66 -863)">
    <g id="Rectangle_8-4" data-name="Rectangle 8" transform="translate(232 1167)" fill="#0f0e24" stroke="#707070" stroke-width="1">
      <rect width="285" height="140" rx="14" stroke="none"/>
      <rect x="0.5" y="0.5" width="284" height="139" rx="13.5" fill="none"/>
    </g>
    <g id="wolf-4" data-name="wolf" transform="translate(268.999 1158.926)" opacity="0.136">
      <g id="Group_23-4" data-name="Group 23">
        <g id="Group_22-4" data-name="Group 22">
          <g id="Group_3-4" data-name="Group 3">
            <path id="Path_3-4" data-name="Path 3" d="M120.512,109.557s16.013,11.026,15.423,38.957c0,0-16.663-30.418-50.752-24.37C85.183,124.145,92.5,104.22,120.512,109.557Z" fill="#9e9e9e"/>
            <path id="Path_4-4" data-name="Path 4" d="M29.077,109.557s-16.014,11.026-15.423,38.957c0,0,16.663-30.418,50.752-24.37C64.406,124.145,57.084,104.22,29.077,109.557Z" fill="#9e9e9e"/>
          </g>
          <g id="Group_4-4" data-name="Group 4">
            <path id="Path_5-4" data-name="Path 5" d="M127.374,98.549s18.417,11.026,17.738,38.958c0,0-19.165-30.419-58.37-24.37C86.742,113.137,95.163,93.212,127.374,98.549Z" fill="#9e9e9e"/>
            <path id="Path_6-4" data-name="Path 6" d="M22.215,98.549S3.8,109.575,4.477,137.507c0,0,19.164-30.419,58.37-24.37C62.847,113.137,54.426,93.212,22.215,98.549Z" fill="#9e9e9e"/>
          </g>
          <path id="Path_7-4" data-name="Path 7" d="M133.637,86.394a24.724,24.724,0,0,1,14.291,9.761c-1.472-26.313-22.907-37.772-22.907-37.772L112.2,14.881C104.217,20.61,83.622,29.1,74.795,29.1S45.374,20.611,37.388,14.881l-12.819,43.5S3.133,69.842,1.662,96.155a24.72,24.72,0,0,1,14.29-9.761S-2.961,97.216.4,116.315c9.036-11.459,34.675-18.674,46.864-12.732s10.928,16.977,12.4,25.677c.836,4.945,1.843,10.333,5.167,13.029,2.524,2.048,7.061,2.037,9.964,2.037s7.44.011,9.965-2.037c3.324-2.7,4.33-8.084,5.166-13.029,1.472-8.7.211-19.735,12.4-25.677s37.827,1.274,46.864,12.732C152.551,97.217,133.637,86.394,133.637,86.394Z" fill="#9e9e9e"/>
          <g id="Group_15-4" data-name="Group 15">
            <g id="Group_9-4" data-name="Group 9">
              <g id="Group_6-4" data-name="Group 6">
                <g id="Group_5-4" data-name="Group 5">
                  <path id="Path_8-4" data-name="Path 8" d="M31.852,1.163c1.793-.913,9.218,5.3,14.459,13.263,4.4,6.7,7.4,19.388,6.926,24.99-.734,8.655-16.366,21.412-27,23.373C19.725,45.141,24.675,4.815,31.852,1.163Z" fill="#b8b8b8"/>
                </g>
              </g>
              <g id="Group_8-4" data-name="Group 8">
                <g id="Group_7-4" data-name="Group 7">
                  <path id="Path_9-4" data-name="Path 9" d="M33.6,9.559C34.9,8.9,40.3,13.41,44.11,19.2c3.2,4.869,5.381,14.1,5.035,18.171-.533,6.293-11.9,15.569-19.633,17C24.778,41.536,28.378,12.215,33.6,9.559Z" fill="#a6a6a6"/>
                </g>
              </g>
            </g>
            <g id="Group_14-4" data-name="Group 14">
              <g id="Group_11-4" data-name="Group 11">
                <g id="Group_10-4" data-name="Group 10">
                  <path id="Path_10-4" data-name="Path 10" d="M117.737,1.163c-1.794-.913-9.218,5.3-14.459,13.263-4.4,6.7-7.4,19.388-6.926,24.99.733,8.655,16.366,21.412,27,23.373C129.864,45.141,124.914,4.815,117.737,1.163Z" fill="#b8b8b8"/>
                </g>
              </g>
              <g id="Group_13-4" data-name="Group 13">
                <g id="Group_12-4" data-name="Group 12">
                  <path id="Path_11-4" data-name="Path 11" d="M115.993,9.559c-1.305-.664-6.7,3.851-10.514,9.643-3.2,4.869-5.382,14.1-5.036,18.171.534,6.293,11.9,15.569,19.633,17C124.811,41.536,121.211,12.215,115.993,9.559Z" fill="#a6a6a6"/>
                </g>
              </g>
            </g>
          </g>
          <path id="Path_12-4" data-name="Path 12" d="M101.043,89.155v9.9h-52.5v-9.9c-8.2-4.568-22.081-1.143-22.081,4.949s18.36,15.933,28.688,39.977c5.143,11.974,16.593,12.575,19.509,12.6h.269c2.915-.026,14.364-.627,19.508-12.6,10.328-24.044,28.688-33.885,28.688-39.977S109.242,84.587,101.043,89.155Z" fill="#b8b8b8"/>
          <path id="Path_13-4" data-name="Path 13" d="M74.794,133.977,64.473,142.11s1.673,5.3,10.321,5.3,10.322-5.3,10.322-5.3Z" fill="#9e9e9e"/>
          <path id="Path_14-4" data-name="Path 14" d="M47.265,97.449c12.188,6.836,10.928,19.532,12.4,29.542.836,5.69,1.843,11.888,5.167,14.991,2.524,2.356,7.061,2.344,9.964,2.344s7.44.012,9.965-2.344c3.324-3.1,4.33-9.3,5.166-14.991,1.472-10.01.211-22.706,12.4-29.542S35.075,90.614,47.265,97.449Z" fill="#9e9e9e"/>
          <g id="Group_16-4" data-name="Group 16">
            <path id="Path_15-4" data-name="Path 15" d="M111.186,104.477s1.8-20.464-4.954-28.423-16.889-3.638-17.79,2.5S88.97,97.279,93.4,99.7,111.186,104.477,111.186,104.477Z" fill="#c2c2c2"/>
            <path id="Path_16-4" data-name="Path 16" d="M38.4,104.477s-1.8-20.464,4.954-28.423,16.889-3.638,17.789,2.5S60.618,97.279,56.192,99.7,38.4,104.477,38.4,104.477Z" fill="#c2c2c2"/>
          </g>
          <g id="Group_21-4" data-name="Group 21">
            <g id="Group_18-4" data-name="Group 18">
              <path id="Path_17-4" data-name="Path 17" d="M86.742,89.85s11.64-2.014,17.469-10.345c0,0-5.561-6.11-12.49-.959C87.069,82,86.742,89.85,86.742,89.85Z" fill="#a6a6a6"/>
              <g id="Group_17-4" data-name="Group 17">
                <ellipse id="Ellipse_1-4" data-name="Ellipse 1" cx="3.423" cy="3.456" rx="3.423" ry="3.456" transform="translate(91.635 78.17)" fill="#fff"/>
                <ellipse id="Ellipse_2-4" data-name="Ellipse 2" cx="1.288" cy="1.3" rx="1.288" ry="1.3" transform="translate(92.904 79.802)" fill="#fff"/>
              </g>
            </g>
            <g id="Group_20-4" data-name="Group 20">
              <path id="Path_18-4" data-name="Path 18" d="M62.847,89.85S51.207,87.836,45.378,79.5c0,0,5.56-6.11,12.489-.959C62.52,82,62.847,89.85,62.847,89.85Z" fill="#a6a6a6"/>
              <g id="Group_19-4" data-name="Group 19">
                <ellipse id="Ellipse_3-4" data-name="Ellipse 3" cx="3.423" cy="3.456" rx="3.423" ry="3.456" transform="translate(51.108 78.17)" fill="#fff"/>
                <ellipse id="Ellipse_4-4" data-name="Ellipse 4" cx="1.288" cy="1.3" rx="1.288" ry="1.3" transform="translate(52.377 79.802)" fill="#fff"/>
              </g>
            </g>
          </g>
          <path id="Path_19-4" data-name="Path 19" d="M74.794,131.87c-4.451,0-7.928.957-9.622,3.143,0,0,5.148,7.764,9.622,7.764s9.623-7.764,9.623-7.764C82.723,132.827,79.245,131.87,74.794,131.87Z" fill="#a6a6a6"/>
          <path id="Path_20-4" data-name="Path 20" d="M74.794,133.507c4.019,0,7.358.479,9.6,1.536l.021-.031c-1.694-2.186-5.172-3.143-9.623-3.143s-7.928.957-9.622,3.143l.021.031C67.436,133.986,70.776,133.507,74.794,133.507Z" fill="#3c454a" opacity="0.8"/>
        </g>
        <path id="Path_21-4" data-name="Path 21" d="M74.794,29.1c-5.646,0-16.1-3.473-25-7.475a36.764,36.764,0,0,0-3.486-7.2C41.069,6.459,33.645.251,31.852,1.163c-6.547,3.331-11.236,37.172-7.067,56.486l-.217.734S3.133,69.842,1.662,96.155a24.72,24.72,0,0,1,14.29-9.761S-2.961,97.216.4,116.315c2.995-3.8,7.819-7.125,13.368-9.666-4.742,6.2-9.648,16.194-9.292,30.858a57.5,57.5,0,0,1,14.058-14.142c-2.851,6.085-5.108,14.348-4.88,25.149,0,0,11.885-21.692,36.111-24.8a79.807,79.807,0,0,1,5.386,10.361A19.741,19.741,0,0,0,67.3,145.451a13.037,13.037,0,0,0,7.494,1.962V29.1Z" fill="#fff" opacity="0.12"/>
      </g>
    </g>
  </g>
  <text id="Service" transform="translate(322 343)" fill="#fff" font-size="18" font-family="Montserrat-Bold, Montserrat" font-weight="700"><tspan x="0" y="0">SERVICE</tspan></text>
  <text id="_1" data-name="1" transform="translate(322 411)" fill="#b90edf" font-size="65" font-family="Montserrat-ExtraBold, Montserrat" font-weight="800"><tspan x="0" y="0">1</tspan></text>
</svg>
